<mxfile host="app.diagrams.net" modified="2023-06-13T21:24:15.368Z" agent="Mozilla/5.0 (Windows NT 10.0; Win64; x64) AppleWebKit/537.36 (KHTML, like Gecko) Chrome/114.0.0.0 Safari/537.36" version="21.3.8" etag="kqrLdSf820n4cIipF1Q3" type="github">
  <diagram name="หน้า-1" id="iPxTuOuzYmvT7-Ojh2TA">
    <mxGraphModel>
      <root>
        <mxCell id="0" />
        <mxCell id="1" parent="0" />
      </root>
    </mxGraphModel>
  </diagram>
</mxfile>
